<svg xmlns="http://www.w3.org/2000/svg" viewBox="0 0 1200 300" role="img" aria-label="nika-agents · the Nika plugin marketplace · one Add per client, five doors typed in a loop">
  <!-- Animated marketplace hero · brand tokens from nika.sh live in the
       THEME block below (the light twin swaps ONLY that block · generated by
       scripts/media/derive-hero-light.py). The chip types the five doors in
       a 25s loop; reduced-motion pins the Claude Code door. -->
  <style>
    /* THEME:START */
    :root {
      --bg0: #050a1c; --bg1: #0a1226;
      --ink: #f4f5f7; --tag: #9fb3cf; --cmd: #d7e5f4;
      --legend: #8fa3bf; --legend-dim: #5a6d8a;
      --accent: #ff7a3c;
      --mark: #9fd0ff; --glow: #5b8cff;
      --star: #f4f5f7; --star-op: 1; --tw-lo: 0.15; --tw-hi: 0.9;
      --pulse-lo: 0.3; --pulse-hi: 0.65; --halo-op: 0.3;
      --chip-bg: #0d1730; --chip-stroke: #1d2b4d;
      --frame: #f4f5f7; --frame-op: 0.08;
      --v-infer: #5b8cff; --v-exec: #ff7a3c; --v-invoke: #22d3ee; --v-agent: #b07bff;
      --wm-op: 0.06;
    }
    /* THEME:END */
    .mono { font-family: 'Martian Mono', ui-monospace, 'SF Mono', Menlo, Consolas, monospace; }
    .title { font-size: 46px; font-weight: 700; letter-spacing: 0.01em; fill: var(--ink); }
    .tag   { font-size: 16px; fill: var(--tag); letter-spacing: 0.01em; }
    .cmd   { font-size: 17px; fill: var(--cmd); }
    .legend { font-size: 12.5px; fill: var(--legend); }
    .stars { opacity: var(--star-op); }
    .s1 { animation: twinkle 3.2s ease-in-out infinite alternate; }
    .s2 { animation: twinkle 4.6s ease-in-out 0.9s infinite alternate; }
    .s3 { animation: twinkle 5.8s ease-in-out 1.7s infinite alternate; }
    .s4 { animation: twinkle 4s ease-in-out 2.6s infinite alternate; }
    .fly  { animation: bob 6s ease-in-out infinite alternate; }
    .glow { animation: pulse 6s ease-in-out infinite alternate; }
    .aura { animation: pulse 7.5s ease-in-out 0.5s infinite alternate; }
    .o1 { animation: drift1 9s ease-in-out infinite; }
    .o2 { animation: drift2 11s ease-in-out infinite; }
    .o3 { animation: drift3 8s ease-in-out infinite; }
    .o4 { animation: drift4 12s ease-in-out infinite; }
    .caret { animation: blink 1.1s steps(1, end) infinite; }
    .shoot { opacity: 0; animation: shoot 14s linear infinite; }
    .tb0 { animation: t0 25s steps(38, end) infinite; }
    .tb1 { animation: t1 25s steps(33, end) infinite; }
    .tb2 { animation: t2 25s steps(28, end) infinite; }
    .tb3 { animation: t3 25s steps(39, end) infinite; }
    .tb4 { animation: t4 25s steps(42, end) infinite; }
    @keyframes twinkle { from { opacity: var(--tw-lo); } to { opacity: var(--tw-hi); } }
    @keyframes bob { from { transform: translateY(0); } to { transform: translateY(-7px); } }
    @keyframes pulse { from { opacity: var(--pulse-lo); } to { opacity: var(--pulse-hi); } }
    @keyframes blink { 0%, 55% { opacity: 1; } 56%, 100% { opacity: 0; } }
    @keyframes shoot { 0%, 71% { opacity: 0; transform: translate(0, 0); } 73% { opacity: 0.85; } 79%, 100% { opacity: 0; transform: translate(330px, 132px); } }
    @keyframes t0 { 0% { width: 0; } 11% { width: 475px; } 19.99% { width: 475px; } 20%, 100% { width: 0; } }
    @keyframes t1 { 0%, 20% { width: 0; } 31% { width: 415px; } 39.99% { width: 415px; } 40%, 100% { width: 0; } }
    @keyframes t2 { 0%, 40% { width: 0; } 51% { width: 355px; } 59.99% { width: 355px; } 60%, 100% { width: 0; } }
    @keyframes t3 { 0%, 60% { width: 0; } 71% { width: 490px; } 79.99% { width: 490px; } 80%, 100% { width: 0; } }
    @keyframes t4 { 0%, 80% { width: 0; } 91% { width: 525px; } 99.99% { width: 525px; } 100% { width: 0; } }
    @keyframes drift1 { 0%, 100% { transform: translate(0, 0); } 50% { transform: translate(10px, -14px); } }
    @keyframes drift2 { 0%, 100% { transform: translate(0, 0); } 50% { transform: translate(-12px, 10px); } }
    @keyframes drift3 { 0%, 100% { transform: translate(0, 0); } 50% { transform: translate(14px, 8px); } }
    @keyframes drift4 { 0%, 100% { transform: translate(0, 0); } 50% { transform: translate(-9px, -12px); } }
    @media (prefers-reduced-motion: reduce) { * { animation: none !important; } }
  </style>
  <defs>
    <linearGradient id="bg" x1="0" y1="0" x2="0" y2="1">
      <stop offset="0" stop-color="var(--bg0)"/>
      <stop offset="1" stop-color="var(--bg1)"/>
    </linearGradient>
    <radialGradient id="halo" cx="0.5" cy="0.5" r="0.5">
      <stop offset="0" stop-color="var(--glow)" stop-opacity="var(--halo-op)"/>
      <stop offset="1" stop-color="var(--glow)" stop-opacity="0"/>
    </radialGradient>
    <filter id="soft" x="-60%" y="-60%" width="220%" height="220%">
      <feGaussianBlur stdDeviation="9"/>
    </filter>
    <clipPath id="frame"><rect width="1200" height="300" rx="14"/></clipPath>
    <clipPath id="type0"><rect class="tb0" x="344" y="188" width="0" height="38"/></clipPath>
    <clipPath id="type1"><rect class="tb1" x="344" y="188" width="415" height="38"/></clipPath>
    <clipPath id="type2"><rect class="tb2" x="344" y="188" width="0" height="38"/></clipPath>
    <clipPath id="type3"><rect class="tb3" x="344" y="188" width="0" height="38"/></clipPath>
    <clipPath id="type4"><rect class="tb4" x="344" y="188" width="0" height="38"/></clipPath>
    <path id="fly" d="M356.141 0.212534C395.472 -2.41239 430.341 19.7062 458.156 42.8337C536.712 108.15 596.45 217.133 645.454 312.937C688.331 272.68 752.069 214.268 819.834 162.126C888.799 109.06 962.276 62.2145 1022.32 47.859C1038.99 43.8737 1059.05 41.6492 1075.13 51.306C1085.65 57.628 1091.93 67.5171 1094.63 78.7599C1099.1 97.3897 1094.08 122.73 1083.49 151.281C1072.85 179.95 1056.39 212.325 1037.43 245.253C995.691 317.733 946.47 385.223 899.046 453.951C951.929 462.298 1005.65 471.603 1051.12 500.691C1073.31 514.885 1087.22 530.408 1094.3 546.508C1101.4 562.647 1101.53 579.145 1096.55 595.045C1086.64 626.685 1056.5 655.95 1020.56 676.416C973.828 703.034 930.064 719.446 881.073 730.624C856.046 736.335 831.743 720.798 824.758 697.303C823.257 692.252 821.716 687.212 820.137 682.182C816.013 669.042 822.217 655.043 834.75 648.641C857.432 637.011 874.16 626.311 885.93 616.494C897.723 606.658 904.372 597.848 907.174 590.045C909.93 582.371 909.028 575.512 905.326 569.204C901.557 562.784 894.81 556.821 885.701 551.343C867.484 540.387 840.667 531.865 812.485 525.39C785.982 519.301 758.478 515.067 736.2 512.3C765.596 594.339 795.249 676.591 814.566 761.719C833.621 845.691 842.104 931.052 826.501 1011.28C820.547 1041.89 806.262 1066.54 784.792 1081.36C761.033 1097.76 728.529 1100.7 701.187 1092.38C662.856 1080.68 625.863 1051.01 593.512 1016.64C562.01 983.168 534.695 944.996 514.597 913.932C442.785 986.301 341.784 1069.45 237.867 1096.19C216.89 1101.67 190.427 1102.42 171.458 1090.47C151.66 1078.01 144.211 1057.18 142.821 1035.41C141.431 1013.66 146.044 990.559 150.789 972.815C177.569 872.659 228.494 788.386 287.336 704.419C291.443 696.694 291.631 688.778 290.003 681.717C288.225 674.009 283.773 669.061 280.208 662.427C167.057 548.933 66.2762 414.975 11.7766 265.252L10.4117 261.472C-0.678894 230.51 -5.87701 189.815 10.0862 159.943C18.6957 143.832 32.6181 133.972 49.5954 128.779C89.0114 116.724 134.062 128.04 172.023 140.178C309.25 185.074 434.474 270.352 545.037 355.156C520.364 304.526 494.424 249.695 465.564 201.143C451.808 178.002 437.635 156.676 423.808 140.048C409.911 123.339 396.629 111.707 384.724 107.475C380.496 105.972 376.416 105.576 373.095 107.522C359.113 115.716 361.72 137.574 362.306 151.126C362.69 160.033 363.1 169.001 361.493 175.747C360.06 181.763 357.862 186.64 351.807 190.265C346.273 193.578 336.809 188.473 332.562 185.148C294.946 155.705 292.532 79.5246 309.78 39.8143C317.511 22.0139 335.123 1.61551 356.141 0.212534ZM602.52 518.466C596.38 517.404 589.028 519.708 582.238 526.006C550.043 555.867 519.42 587.818 490.701 620.389C467.373 646.849 427.754 695.254 393.424 745.601C376.259 770.775 360.447 796.39 348.659 819.959C336.839 843.59 329.191 864.92 328.109 881.591C327.618 889.148 328.557 897.546 334.175 903.165C339.214 908.169 346.055 909.512 352.897 909.512C376.248 908.656 397.893 893.596 416.388 880.726C452.444 855.945 484.388 814.789 522.805 794.213C559.732 775.727 590.644 825.729 620.982 837.712C633.385 842.61 646.203 841.374 657.44 834.137C676.113 821.672 670.938 791.354 673.1 772.08C673.1 736.527 662.836 700.538 654.641 666.31C643.003 617.705 628.167 564.55 616.935 532.314C614.014 523.928 608.571 519.513 602.52 518.466ZM356.263 370.139C316.388 355.646 278.099 346.202 250.084 348.005C235.25 352.448 228.097 361.184 225.641 371.596C223.117 382.299 225.476 395.147 230.564 407.547C258.44 475.478 307.411 531.339 346.571 592.682C353.127 602.952 368.718 604.065 376.499 594.683C389.434 579.088 402.561 563.638 415.876 548.336L480.189 477.025C495.942 459.558 491.815 433.063 470.778 421.871C437.35 404.088 396.178 384.647 356.263 370.139ZM875.055 271.889C864.161 274.056 850.398 280.064 835.062 288.605C806.272 304.638 676.912 377.425 692.255 410.021C695.052 415.964 701.248 419.915 708.228 420.045C734.678 420.537 761.102 421.766 787.472 423.912C809.532 425.708 831.222 415.715 842.234 397.714C856.402 374.553 874.096 343.674 883.194 317.989C887.093 306.982 894.675 286.548 884.71 276.309C882.585 274.126 879.494 272.541 875.055 271.889Z"/>
  </defs>

  <g clip-path="url(#frame)">
    <rect width="1200" height="300" fill="url(#bg)"/>

    <!-- starfield -->
    <g class="stars" fill="var(--star)">
      <circle class="s1" cx="62" cy="38" r="1.4"/><circle class="s2" cx="188" cy="262" r="1.1"/>
      <circle class="s3" cx="298" cy="34" r="1.2"/><circle class="s1" cx="420" cy="270" r="1.3"/>
      <circle class="s2" cx="520" cy="42" r="1.1"/><circle class="s3" cx="640" cy="28" r="1.6"/>
      <circle class="s1" cx="742" cy="252" r="1.1"/><circle class="s2" cx="808" cy="60" r="1.3"/>
      <circle class="s3" cx="890" cy="212" r="1.1"/><circle class="s1" cx="948" cy="44" r="1.5"/>
      <circle class="s2" cx="1022" cy="150" r="1.1"/><circle class="s3" cx="1084" cy="66" r="1.3"/>
      <circle class="s1" cx="1128" cy="238" r="1.2"/><circle class="s2" cx="1166" cy="120" r="1.1"/>
      <circle class="s3" cx="352" cy="150" r="1"/><circle class="s1" cx="702" cy="140" r="1"/>
      <circle class="s2" cx="980" cy="272" r="1.2"/><circle class="s3" cx="120" cy="150" r="1"/>
      <circle class="s4" cx="86" cy="212" r="1.8"/><circle class="s2" cx="238" cy="70" r="1"/>
      <circle class="s4" cx="386" cy="52" r="1.1"/><circle class="s1" cx="470" cy="120" r="0.9"/>
      <circle class="s3" cx="560" cy="248" r="1.4"/><circle class="s4" cx="676" cy="66" r="1"/>
      <circle class="s2" cx="762" cy="180" r="0.9"/><circle class="s4" cx="852" cy="120" r="1.8"/>
      <circle class="s1" cx="912" cy="276" r="1"/><circle class="s3" cx="1002" cy="34" r="1.2"/>
      <circle class="s4" cx="1058" cy="196" r="1"/><circle class="s1" cx="1114" cy="150" r="1.4"/>
      <circle class="s2" cx="1152" cy="42" r="1"/><circle class="s4" cx="1184" cy="204" r="1.1"/>
      <circle class="s3" cx="150" cy="86" r="1"/><circle class="s4" cx="256" cy="180" r="0.9"/>
    </g>

    <!-- a shooting star, once a cycle -->
    <g class="shoot"><line x1="806" y1="18" x2="850" y2="35.6" stroke="var(--star)" stroke-width="1.6" stroke-linecap="round"/></g>

    <!-- cosmic watermark butterfly, right edge -->
    <use href="#fly" transform="translate(950 -40) scale(0.34) rotate(14 550 550)" fill="var(--glow)" opacity="var(--wm-op)"/>

    <!-- the butterfly -->
    <circle class="aura" cx="168" cy="148" r="150" fill="url(#halo)" opacity="0.5"/>
    <g class="fly">
      <use href="#fly" transform="translate(80 58) scale(0.16)" fill="var(--glow)" filter="url(#soft)" class="glow" opacity="0.45"/>
      <use href="#fly" transform="translate(80 58) scale(0.16)" fill="var(--mark)"/>
    </g>

    <!-- four verbs, four sparks -->
    <g class="o1"><circle cx="286" cy="84" r="4" fill="var(--v-infer)"/><circle cx="286" cy="84" r="8" fill="var(--v-infer)" opacity="0.25"/></g>
    <g class="o2"><circle cx="66" cy="120" r="4" fill="var(--v-exec)"/><circle cx="66" cy="120" r="8" fill="var(--v-exec)" opacity="0.25"/></g>
    <g class="o3"><circle cx="262" cy="222" r="4" fill="var(--v-invoke)"/><circle cx="262" cy="222" r="8" fill="var(--v-invoke)" opacity="0.25"/></g>
    <g class="o4"><circle cx="120" cy="252" r="4" fill="var(--v-agent)"/><circle cx="120" cy="252" r="8" fill="var(--v-agent)" opacity="0.25"/></g>

    <!-- wordmark -->
    <text class="mono title" x="330" y="112">nika-agents</text>
    <text class="mono tag" x="330" y="150">the plugin marketplace · one Add teaches your agent the language</text>

    <!-- the five doors, typed in a loop -->
    <rect x="326" y="182" width="560" height="46" rx="9" fill="var(--chip-bg)" stroke="var(--chip-stroke)"/>
    <g clip-path="url(#type0)">
      <text class="mono cmd" x="344" y="212"><tspan fill="var(--accent)">$</tspan> brew install supernovae-st/tap/nika<tspan class="caret" fill="var(--accent)">▋</tspan></text>
    </g>
    <g clip-path="url(#type1)">
      <text class="mono cmd" x="344" y="212"><tspan fill="var(--accent)">$</tspan> claude plugin install nika@nika<tspan class="caret" fill="var(--accent)">▋</tspan></text>
    </g>
    <g clip-path="url(#type2)">
      <text class="mono cmd" x="344" y="212"><tspan fill="var(--accent)">$</tspan> codex plugin add nika@nika<tspan class="caret" fill="var(--accent)">▋</tspan></text>
    </g>
    <g clip-path="url(#type3)">
      <text class="mono cmd" x="344" y="212"><tspan fill="var(--accent)">$</tspan> grok plugin install nika@nika --trust<tspan class="caret" fill="var(--accent)">▋</tspan></text>
    </g>
    <g clip-path="url(#type4)">
      <text class="mono cmd" x="344" y="212"><tspan fill="var(--accent)">$</tspan> npx skills add supernovae-st/nika-agents<tspan class="caret" fill="var(--accent)">▋</tspan></text>
    </g>

    <!-- verb legend -->
    <g class="mono legend">
      <circle cx="336" cy="262" r="4" fill="var(--v-infer)"/><text x="348" y="267">infer</text>
      <circle cx="426" cy="262" r="4" fill="var(--v-exec)"/><text x="438" y="267">exec</text>
      <circle cx="508" cy="262" r="4" fill="var(--v-invoke)"/><text x="520" y="267">invoke</text>
      <circle cx="606" cy="262" r="4" fill="var(--v-agent)"/><text x="618" y="267">agent</text>
      <text x="700" y="267" fill="var(--legend-dim)">· checked before a token is spent · traced after</text>
    </g>
  </g>
  <rect x="0.5" y="0.5" width="1199" height="299" rx="14" fill="none" stroke="var(--frame)" stroke-opacity="var(--frame-op)"/>
</svg>
